<?xml version="1.0" encoding="UTF-8"?>
<svg width="115px" height="97px" viewBox="0 0 115 97" version="1.1" xmlns="http://www.w3.org/2000/svg" xmlns:xlink="http://www.w3.org/1999/xlink">
    <!-- Generator: Sketch 49.3 (51167) - http://www.bohemiancoding.com/sketch -->
    <title>Icon</title>
    <desc>Created with Sketch.</desc>
    <defs>
        <filter x="-5.8%" y="-3.4%" width="111.6%" height="108.6%" filterUnits="objectBoundingBox" id="filter-1">
            <feOffset dx="0" dy="5" in="SourceAlpha" result="shadowOffsetOuter1"></feOffset>
            <feGaussianBlur stdDeviation="7.5" in="shadowOffsetOuter1" result="shadowBlurOuter1"></feGaussianBlur>
            <feColorMatrix values="0 0 0 0 0   0 0 0 0 0   0 0 0 0 0  0 0 0 0.05 0" type="matrix" in="shadowBlurOuter1" result="shadowMatrixOuter1"></feColorMatrix>
            <feMerge>
                <feMergeNode in="shadowMatrixOuter1"></feMergeNode>
                <feMergeNode in="SourceGraphic"></feMergeNode>
            </feMerge>
        </filter>
    </defs>
    <g id="Page-1" stroke="none" stroke-width="1" fill="none" fill-rule="evenodd">
        <g id="3-—-Homepage-C" transform="translate(-514.000000, -226.000000)" fill="#FFFFFF" fill-rule="nonzero">
            <g id="Card" filter="url(#filter-1)" transform="translate(504.000000, 139.000000)">
                <g id="Icon" transform="translate(25.000000, 97.000000)">
                    <path d="M86,7.70927341 C86,6.40041943 85.4935732,5.16999864 84.5739425,4.24468975 L82.6614466,2.31969566 C81.7418159,1.39421773 80.519001,0.884570985 79.2184164,0.884570985 C77.9178319,0.884570985 76.695185,1.39421773 75.7753863,2.31969566 L66.7633413,11.3890413 L66.7633413,1.72400905 C66.7633413,0.7719923 65.9962266,2.77481606e-08 65.0502247,2.77481606e-08 L1.71311663,2.77481606e-08 C0.76694681,-0.000169009316 0,0.7719923 0,1.72400905 L0,65.463491 C0,66.4155077 0.76694681,67.1875 1.71311663,67.1875 L65.0500567,67.1875 C65.9960586,67.1875 66.7631734,66.4155077 66.7631734,65.463491 L66.7625015,29.0992235 L84.5739425,11.1743642 C85.4935732,10.2488863 86,9.0181274 86,7.70927341 Z M63.3369401,63.7393129 L3.42623325,63.7393129 L3.42623325,3.4481871 L63.3369401,3.4481871 L63.3367721,14.8372283 L31.9724101,46.4010122 C31.7842847,46.5903337 31.6426868,46.8212384 31.5585343,47.074963 L28.3704812,56.6997644 C28.165223,57.3192852 28.3254655,58.002364 28.784357,58.4640042 C29.1108889,58.7926123 29.5487843,58.9689179 29.9960859,58.9689179 C30.1773246,58.9689179 30.3600749,58.9400126 30.5376182,58.8805116 L40.1016096,55.6723571 C40.3538991,55.5876695 40.5831769,55.4451713 40.7713023,55.2558498 L63.3369401,32.5467344 L63.3369401,63.7393129 Z M38.6342317,52.5299581 L32.7042514,54.5190172 L34.6809115,48.5513327 L71.0567989,11.944159 L75.0101192,15.9226153 L38.6342317,52.5299581 Z M82.1511565,8.73600454 L77.4329051,13.4844247 L75.456245,11.4951965 L73.4797529,9.50596837 L78.1981723,4.7575482 C78.4707861,4.48320104 78.8329274,4.33225095 79.2184164,4.33225095 C79.6039055,4.33225095 79.9660468,4.48320104 80.2386606,4.75737916 L82.1513245,6.68237325 C82.1513245,6.68254229 82.1513245,6.68254229 82.1514925,6.68254229 C82.4239383,6.95688944 82.5739347,7.32133335 82.5739347,7.70910438 C82.5739347,8.09721348 82.4237704,8.46182642 82.1511565,8.73600454 Z" id="Shape"></path>
                    <path d="M53.7217468,10.75 L51.9865865,10.75 C50.9816067,10.75 50.1666667,11.5522886 50.1666667,12.5416667 C50.1666667,13.5310447 50.9814283,14.3333333 51.9865865,14.3333333 L53.7217468,14.3333333 C54.7267266,14.3333333 55.5416666,13.5310447 55.5416666,12.5416667 C55.5418451,11.5524643 54.7267266,10.75 53.7217468,10.75 Z" id="Shape"></path>
                    <path d="M44.8553895,10.75 L13.3736078,10.75 C12.4193423,10.75 11.6458333,11.5522886 11.6458333,12.5416667 C11.6458333,13.5310447 12.4193423,14.3333333 13.3736078,14.3333333 L44.8555589,14.3333333 C45.8096549,14.3333333 46.5833333,13.5310447 46.5833333,12.5416667 C46.5831639,11.5524643 45.8094855,10.75 44.8553895,10.75 Z" id="Shape"></path>
                    <path d="M43.0712159,20.6041667 L13.3661154,20.6041667 C12.4159881,20.6041667 11.6458333,21.4064553 11.6458333,22.3958333 C11.6458333,23.3852114 12.4159881,24.1875 13.3661154,24.1875 L43.0713846,24.1875 C44.0213433,24.1875 44.7916667,23.3852114 44.7916667,22.3958333 C44.7916667,21.4064553 44.0211746,20.6041667 43.0712159,20.6041667 Z" id="Shape"></path>
                    <path d="M32.3210513,30.4583333 L13.36628,30.4583333 C12.4160617,30.4583333 11.6458333,31.260622 11.6458333,32.25 C11.6458333,33.239378 12.4160617,34.0416667 13.36628,34.0416667 L32.32122,34.0416667 C33.2714383,34.0416667 34.0416667,33.239378 34.0416667,32.25 C34.0416667,31.260622 33.2712696,30.4583333 32.3210513,30.4583333 Z" id="Shape"></path>
                    <path d="M24.2420097,40.3125 L13.3831606,40.3125 C12.423619,40.3125 11.6458333,41.1147886 11.6458333,42.1041667 C11.6458333,43.0935447 12.423619,43.8958333 13.3831606,43.8958333 L24.2418394,43.8958333 C25.201381,43.8958333 25.9791667,43.0935447 25.9791667,42.1041667 C25.9791667,41.1147886 25.2015513,40.3125 24.2420097,40.3125 Z" id="Shape"></path>
                </g>
            </g>
        </g>
    </g>
</svg>