<?xml version="1.0" encoding="UTF-8"?>
<svg width="46px" height="40px" viewBox="0 0 46 40" version="1.1" xmlns="http://www.w3.org/2000/svg" xmlns:xlink="http://www.w3.org/1999/xlink">
    <!-- Generator: Sketch 49.3 (51167) - http://www.bohemiancoding.com/sketch -->
    <title>Icon</title>
    <desc>Created with Sketch.</desc>
    <defs>
        <filter x="-5.8%" y="-5.6%" width="111.6%" height="113.9%" filterUnits="objectBoundingBox" id="filter-1">
            <feOffset dx="0" dy="5" in="SourceAlpha" result="shadowOffsetOuter1"></feOffset>
            <feGaussianBlur stdDeviation="7.5" in="shadowOffsetOuter1" result="shadowBlurOuter1"></feGaussianBlur>
            <feColorMatrix values="0 0 0 0 0   0 0 0 0 0   0 0 0 0 0  0 0 0 0.05 0" type="matrix" in="shadowBlurOuter1" result="shadowMatrixOuter1"></feColorMatrix>
            <feMerge>
                <feMergeNode in="shadowMatrixOuter1"></feMergeNode>
                <feMergeNode in="SourceGraphic"></feMergeNode>
            </feMerge>
        </filter>
    </defs>
    <g id="Page-1" stroke="none" stroke-width="1" fill="none" fill-rule="evenodd" opacity="0.149999991">
        <g id="3-—-Homepage-C" transform="translate(-604.000000, -1424.000000)" fill="#1D1F24">
            <g id="Card" filter="url(#filter-1)" transform="translate(504.000000, 1114.000000)">
                <g id="Footer" transform="translate(0.000000, 289.000000)">
                    <g id="views" transform="translate(112.000000, 20.000000)">
                        <path d="M11,8.5 C6,8.5 1.73,11.61 0,16 C1.73,20.39 6,23.5 11,23.5 C16,23.5 20.27,20.39 22,16 C20.27,11.61 16,8.5 11,8.5 L11,8.5 Z M11,21 C8.24,21 6,18.76 6,16 C6,13.24 8.24,11 11,11 C13.76,11 16,13.24 16,16 C16,18.76 13.76,21 11,21 L11,21 Z M11,13 C9.34,13 8,14.34 8,16 C8,17.66 9.34,19 11,19 C12.66,19 14,17.66 14,16 C14,14.34 12.66,13 11,13 L11,13 Z" id="Icon"></path>
                    </g>
                </g>
            </g>
        </g>
    </g>
</svg>