<?xml version="1.0" encoding="UTF-8"?>
<svg width="16px" height="16px" viewBox="0 0 16 16" version="1.1" xmlns="http://www.w3.org/2000/svg" xmlns:xlink="http://www.w3.org/1999/xlink">
    <!-- Generator: Sketch 49.3 (51167) - http://www.bohemiancoding.com/sketch -->
    <title>instagram</title>
    <desc>Created with Sketch.</desc>
    <defs></defs>
    <g id="Symbols" stroke="none" stroke-width="1" fill="none" fill-rule="evenodd" fill-opacity="0.3">
        <g id="Component-/-Footer" transform="translate(-1282.000000, -51.000000)" fill="#FFFFFF">
            <g id="Social">
                <g transform="translate(1201.000000, 48.000000)">
                    <path d="M95.1543645,9.76859895 L93.7613902,9.76859895 C93.8628662,10.1625805 93.9227886,10.5741931 93.9227886,10.9996311 C93.9227886,13.7189775 91.7188221,15.9228663 89.0000194,15.9228663 C86.2812167,15.9228663 84.0771725,13.7189775 84.0771725,10.9996311 C84.0771725,10.5741931 84.137328,10.1625417 84.238804,9.76859895 L82.8458297,9.76859895 L82.8458297,16.5382465 C82.8458297,16.8777424 83.1214032,17.1530829 83.4617535,17.1530829 L94.5382465,17.1530829 C94.8786745,17.1530829 95.1543256,16.8777424 95.1543256,16.5382465 L95.1543256,9.76859895 L95.1543645,9.76859895 Z M95.2772308,5.48581202 C95.2772308,5.13244175 94.9905328,4.84586856 94.6365523,4.84586856 L92.7171823,4.84586856 C92.3635653,4.84586856 92.0772308,5.13244175 92.0772308,5.48581202 L92.0772308,7.4059251 C92.0772308,7.75905306 92.3635653,8.04586856 92.7171823,8.04586856 L94.6365523,8.04586856 C94.9905732,8.04586856 95.2772308,7.75905306 95.2772308,7.4059251 L95.2772308,5.48581202 L95.2772308,5.48581202 Z M89.0000194,7.92304108 C87.3004813,7.92304108 85.9230022,9.3002483 85.9230022,10.9996699 C85.9230022,12.6989362 87.3005201,14.0769589 89.0000194,14.0769589 C90.6994022,14.0769589 92.0771919,12.6989362 92.0771919,10.9996699 C92.0771919,9.30020947 90.6994022,7.92304108 89.0000194,7.92304108 L89.0000194,7.92304108 Z M95.1543645,18.9999612 L82.8458297,18.9999612 C81.8265651,18.9999612 81,18.1732019 81,17.1530829 L81,4.84586856 C81,3.82629327 81.8265651,3 82.8458297,3 L95.1543256,3 C96.1737456,3 97,3.82629327 97,4.84586856 L97,17.1530829 C97.0000388,18.1732019 96.1737844,18.9999612 95.1543645,18.9999612 L95.1543645,18.9999612 Z" id="instagram"></path>
                </g>
            </g>
        </g>
    </g>
</svg>