<?xml version="1.0" encoding="UTF-8"?>
<svg width="48px" height="43px" viewBox="0 0 48 43" version="1.1" xmlns="http://www.w3.org/2000/svg" xmlns:xlink="http://www.w3.org/1999/xlink">
    <!-- Generator: Sketch 49.3 (51167) - http://www.bohemiancoding.com/sketch -->
    <title>Icon</title>
    <desc>Created with Sketch.</desc>
    <defs>
        <filter x="-5.8%" y="-5.6%" width="111.6%" height="113.9%" filterUnits="objectBoundingBox" id="filter-1">
            <feOffset dx="0" dy="5" in="SourceAlpha" result="shadowOffsetOuter1"></feOffset>
            <feGaussianBlur stdDeviation="7.5" in="shadowOffsetOuter1" result="shadowBlurOuter1"></feGaussianBlur>
            <feColorMatrix values="0 0 0 0 0   0 0 0 0 0   0 0 0 0 0  0 0 0 0.05 0" type="matrix" in="shadowBlurOuter1" result="shadowMatrixOuter1"></feColorMatrix>
            <feMerge>
                <feMergeNode in="shadowMatrixOuter1"></feMergeNode>
                <feMergeNode in="SourceGraphic"></feMergeNode>
            </feMerge>
        </filter>
    </defs>
    <g id="Page-1" stroke="none" stroke-width="1" fill="none" fill-rule="evenodd" opacity="0.149999991">
        <g id="3-—-Homepage-C" transform="translate(-686.000000, -1421.000000)" fill="#1D1F24">
            <g id="Card" filter="url(#filter-1)" transform="translate(504.000000, 1114.000000)">
                <g id="Footer" transform="translate(0.000000, 289.000000)">
                    <g id="comments" transform="translate(196.000000, 20.000000)">
                        <path d="M19,10 L17,10 L17,19 L4,19 L4,21 C4,21.55 4.45,22 5,22 L16,22 L20,26 L20,11 C20,10.45 19.55,10 19,10 L19,10 Z M15,16 L15,7 C15,6.45 14.55,6 14,6 L1,6 C0.45,6 0,6.45 0,7 L0,21 L4,17 L14,17 C14.55,17 15,16.55 15,16 L15,16 Z" id="Icon"></path>
                    </g>
                </g>
            </g>
        </g>
    </g>
</svg>