<?xml version="1.0" encoding="UTF-8"?>
<svg width="13px" height="16px" viewBox="0 0 13 16" version="1.1" xmlns="http://www.w3.org/2000/svg" xmlns:xlink="http://www.w3.org/1999/xlink">
    <!-- Generator: Sketch 49.3 (51167) - http://www.bohemiancoding.com/sketch -->
    <title>pinterest</title>
    <desc>Created with Sketch.</desc>
    <defs></defs>
    <g id="Symbols" stroke="none" stroke-width="1" fill="none" fill-rule="evenodd" fill-opacity="0.3">
        <g id="Component-/-Footer" transform="translate(-1322.000000, -51.000000)" fill="#FFFFFF">
            <g id="Social">
                <g transform="translate(1201.000000, 48.000000)">
                    <path d="M127.568021,3 C123.201703,3 121,6.13055477 121,8.74107208 C121,10.3217281 121.598484,11.7280156 122.882014,12.2521307 C123.092422,12.3381499 123.281042,12.255121 123.342052,12.0220731 C123.384499,11.8607919 123.485003,11.4538804 123.529819,11.2845605 C123.591333,11.0540368 123.567488,10.9731826 123.397664,10.77229 C123.027567,10.3357086 122.791024,9.77054507 122.791024,8.97004235 C122.791024,6.64748543 124.528728,4.56838417 127.315867,4.56838417 C129.783782,4.56838417 131.13974,6.07638015 131.13974,8.09031654 C131.13974,10.7401736 129.967005,12.9766725 128.226117,12.9766725 C127.264605,12.9766725 126.544956,12.1815289 126.775596,11.2063859 C127.051906,10.0420783 127.587012,8.78565449 127.587012,7.94522954 C127.587012,7.19299854 127.183207,6.5655439 126.347481,6.5655439 C125.364649,6.5655439 124.575097,7.58231789 124.575097,8.94433368 C124.575097,9.81178768 124.868262,10.3985434 124.868262,10.3985434 C124.868262,10.3985434 123.862517,14.6601631 123.686168,15.4064524 C123.334984,16.8927785 123.633313,18.7149096 123.658673,18.8989091 C123.67343,19.0079962 123.813585,19.033899 123.876963,18.9514915 C123.967643,18.8331617 125.13828,17.3880005 125.536221,15.944082 C125.648842,15.5352287 126.182743,13.417914 126.182743,13.417914 C126.502005,14.0269609 127.435206,14.5634255 128.427592,14.5634255 C131.381953,14.5634255 133.386336,11.8700735 133.386336,8.26491801 C133.386297,5.53878935 131.077332,3 127.568021,3 L127.568021,3 Z" id="pinterest"></path>
                </g>
            </g>
        </g>
    </g>
</svg>