<?xml version="1.0" encoding="UTF-8"?>
<svg width="16px" height="13px" viewBox="0 0 16 13" version="1.1" xmlns="http://www.w3.org/2000/svg" xmlns:xlink="http://www.w3.org/1999/xlink">
    <!-- Generator: Sketch 49.3 (51167) - http://www.bohemiancoding.com/sketch -->
    <title>twitter</title>
    <desc>Created with Sketch.</desc>
    <defs></defs>
    <g id="Symbols" stroke="none" stroke-width="1" fill="none" fill-rule="evenodd" fill-opacity="0.3">
        <g id="Component-/-Footer" transform="translate(-1353.000000, -52.000000)" fill="#FFFFFF">
            <g id="Social">
                <g transform="translate(1201.000000, 48.000000)">
                    <path d="M168,5.53918447 C167.41134,5.80031068 166.77868,5.97681553 166.11468,6.05607767 C166.792311,5.64982524 167.312893,5.00656311 167.557942,4.24 C166.92365,4.61619417 166.221165,4.88935922 165.473437,5.03654369 C164.87468,4.39856311 164.021553,4 163.077398,4 C160.958563,4 159.400971,5.97732039 159.879845,8.03056311 C157.151689,7.89370874 154.732893,6.58679612 153.113903,4.6008932 C152.254019,6.07596117 152.667883,8.00636893 154.129748,8.98341748 C153.591728,8.96640777 153.085437,8.81871845 152.642951,8.5727767 C152.60734,10.0936311 153.697165,11.5157282 155.275767,11.832932 C154.813786,11.9586408 154.307767,11.9874175 153.793437,11.8891262 C154.211068,13.1932039 155.423417,14.1422524 156.859845,14.168699 C155.479767,15.2502136 153.741592,15.7332816 152,15.5280388 C153.45266,16.4593786 155.178136,17.0028738 157.031883,17.0028738 C163.12633,17.0028738 166.569553,11.8552621 166.362019,7.23840777 C167.003456,6.77561165 167.559922,6.19747573 168,5.53918447 L168,5.53918447 Z" id="twitter"></path>
                </g>
            </g>
        </g>
    </g>
</svg>